<svg width="208" height="157" viewBox="0 0 208 157" fill="none" xmlns="http://www.w3.org/2000/svg">
<path d="M0 8C0 3.5817 3.5817 0 8 0H200C204.418 0 208 3.5817 208 8V38H0V8Z" fill="#7551DC"/>
<path d="M12.416 24L16.544 12.8H18.4L22.496 24H20.704L19.744 21.264H15.168L14.208 24H12.416ZM15.648 19.92H19.264L17.456 14.816L15.648 19.92ZM25.79 24.192C24.83 24.192 24.0727 23.8933 23.518 23.296C22.974 22.6987 22.702 21.808 22.702 20.624V16.064H24.398V20.448C24.398 21.984 25.0273 22.752 26.286 22.752C26.9153 22.752 27.4327 22.528 27.838 22.08C28.2433 21.632 28.446 20.992 28.446 20.16V16.064H30.142V24H28.638L28.51 22.608C28.2647 23.0987 27.902 23.488 27.422 23.776C26.9527 24.0533 26.4087 24.192 25.79 24.192ZM34.5875 21.568C34.1715 21.568 33.7875 21.52 33.4355 21.424L32.7475 22.096C32.8648 22.1707 33.0088 22.2347 33.1795 22.288C33.3502 22.3413 33.5902 22.3893 33.8995 22.432C34.2088 22.4747 34.6302 22.5173 35.1635 22.56C36.2195 22.656 36.9822 22.912 37.4515 23.328C37.9208 23.7333 38.1555 24.2773 38.1555 24.96C38.1555 25.4293 38.0275 25.872 37.7715 26.288C37.5262 26.7147 37.1368 27.056 36.6035 27.312C36.0808 27.5787 35.4088 27.712 34.5875 27.712C33.4782 27.712 32.5768 27.4987 31.8835 27.072C31.2008 26.656 30.8595 26.0213 30.8595 25.168C30.8595 24.8373 30.9448 24.5067 31.1155 24.176C31.2968 23.856 31.5795 23.552 31.9635 23.264C31.7395 23.168 31.5422 23.0667 31.3715 22.96C31.2115 22.8427 31.0675 22.7253 30.9395 22.608V22.224L32.3155 20.816C31.6968 20.2827 31.3875 19.584 31.3875 18.72C31.3875 18.1973 31.5102 17.7227 31.7555 17.296C32.0115 16.8587 32.3795 16.512 32.8595 16.256C33.3395 16 33.9155 15.872 34.5875 15.872C35.0355 15.872 35.4515 15.936 35.8355 16.064H38.7955V17.184L37.3875 17.264C37.6435 17.7013 37.7715 18.1867 37.7715 18.72C37.7715 19.2533 37.6435 19.7333 37.3875 20.16C37.1422 20.5867 36.7795 20.928 36.2995 21.184C35.8302 21.44 35.2595 21.568 34.5875 21.568ZM34.5875 20.24C35.0782 20.24 35.4728 20.112 35.7715 19.856C36.0808 19.5893 36.2355 19.216 36.2355 18.736C36.2355 18.2453 36.0808 17.872 35.7715 17.616C35.4728 17.36 35.0782 17.232 34.5875 17.232C34.0862 17.232 33.6808 17.36 33.3715 17.616C33.0728 17.872 32.9235 18.2453 32.9235 18.736C32.9235 19.216 33.0728 19.5893 33.3715 19.856C33.6808 20.112 34.0862 20.24 34.5875 20.24ZM32.4595 25.008C32.4595 25.4667 32.6622 25.808 33.0675 26.032C33.4728 26.2667 33.9795 26.384 34.5875 26.384C35.1742 26.384 35.6488 26.256 36.0115 26C36.3742 25.7547 36.5555 25.424 36.5555 25.008C36.5555 24.6987 36.4328 24.432 36.1875 24.208C35.9422 23.9947 35.4782 23.8613 34.7955 23.808C34.2835 23.776 33.8302 23.728 33.4355 23.664C33.0622 23.8667 32.8062 24.0853 32.6675 24.32C32.5288 24.5547 32.4595 24.784 32.4595 25.008ZM42.2763 24.192C41.3163 24.192 40.5589 23.8933 40.0043 23.296C39.4603 22.6987 39.1883 21.808 39.1883 20.624V16.064H40.8843V20.448C40.8843 21.984 41.5136 22.752 42.7723 22.752C43.4016 22.752 43.9189 22.528 44.3243 22.08C44.7296 21.632 44.9323 20.992 44.9323 20.16V16.064H46.6283V24H45.1243L44.9963 22.608C44.7509 23.0987 44.3883 23.488 43.9083 23.776C43.4389 24.0533 42.8949 24.192 42.2763 24.192ZM50.9938 24.192C49.9911 24.192 49.1644 23.9467 48.5137 23.456C47.8631 22.9653 47.4897 22.3147 47.3937 21.504H49.1057C49.1911 21.8667 49.3937 22.1813 49.7137 22.448C50.0337 22.704 50.4551 22.832 50.9777 22.832C51.4897 22.832 51.8631 22.7253 52.0978 22.512C52.3324 22.2987 52.4497 22.0533 52.4497 21.776C52.4497 21.3707 52.2844 21.0987 51.9538 20.96C51.6338 20.8107 51.1858 20.6773 50.6098 20.56C50.1618 20.464 49.7138 20.336 49.2657 20.176C48.8284 20.016 48.4604 19.792 48.1617 19.504C47.8737 19.2053 47.7297 18.8053 47.7297 18.304C47.7297 17.6107 47.9964 17.0347 48.5297 16.576C49.0631 16.1067 49.8098 15.872 50.7698 15.872C51.6551 15.872 52.3698 16.0853 52.9138 16.512C53.4684 16.9387 53.7937 17.5413 53.8898 18.32H52.2578C52.2044 17.9787 52.0444 17.712 51.7778 17.52C51.5218 17.328 51.1751 17.232 50.7378 17.232C50.3111 17.232 49.9804 17.3227 49.7457 17.504C49.5111 17.6747 49.3937 17.8987 49.3937 18.176C49.3937 18.4533 49.5537 18.672 49.8737 18.832C50.2044 18.992 50.6364 19.136 51.1698 19.264C51.7031 19.3813 52.1938 19.52 52.6418 19.68C53.1004 19.8293 53.4684 20.0533 53.7457 20.352C54.0231 20.6507 54.1618 21.088 54.1618 21.664C54.1724 22.3893 53.8898 22.992 53.3138 23.472C52.7484 23.952 51.9751 24.192 50.9938 24.192ZM58.0844 24C57.3057 24 56.687 23.8133 56.2284 23.44C55.7697 23.056 55.5404 22.3787 55.5404 21.408V17.488H54.1804V16.064H55.5404L55.7484 14.048H57.2364V16.064H59.4764V17.488H57.2364V21.408C57.2364 21.8453 57.327 22.1493 57.5084 22.32C57.7004 22.48 58.0257 22.56 58.4844 22.56H59.3964V24H58.0844ZM63.1764 24V22.784C63.9017 22.208 64.595 21.6267 65.256 21.04C65.918 20.4533 66.504 19.8773 67.016 19.312C67.539 18.736 67.95 18.176 68.248 17.632C68.547 17.0773 68.696 16.544 68.696 16.032C68.696 15.6907 68.638 15.3707 68.52 15.072C68.403 14.7627 68.211 14.5173 67.944 14.336C67.678 14.144 67.32 14.048 66.872 14.048C66.2 14.048 65.694 14.2613 65.352 14.688C65.022 15.1147 64.8617 15.6267 64.8724 16.224H63.2244C63.235 15.4347 63.4004 14.7733 63.7204 14.24C64.051 13.7067 64.4884 13.3013 65.032 13.024C65.587 12.7467 66.211 12.608 66.904 12.608C67.96 12.608 68.803 12.9067 69.432 13.504C70.072 14.0907 70.392 14.912 70.392 15.968C70.392 16.5973 70.238 17.2213 69.928 17.84C69.63 18.4587 69.235 19.056 68.744 19.632C68.264 20.1973 67.747 20.7307 67.192 21.232C66.638 21.7333 66.11 22.1867 65.608 22.592H70.728V24H63.1764ZM75.952 24.192C74.938 24.192 74.064 23.952 73.328 23.472C72.602 22.9813 72.042 22.304 71.648 21.44C71.264 20.5653 71.072 19.552 71.072 18.4C71.072 17.248 71.264 16.24 71.648 15.376C72.042 14.5013 72.602 13.824 73.328 13.344C74.064 12.8533 74.938 12.608 75.952 12.608C76.965 12.608 77.834 12.8533 78.56 13.344C79.285 13.824 79.84 14.5013 80.224 15.376C80.618 16.24 80.816 17.248 80.816 18.4C80.816 19.552 80.618 20.5653 80.224 21.44C79.84 22.304 79.285 22.9813 78.56 23.472C77.834 23.952 76.965 24.192 75.952 24.192ZM75.952 22.672C76.56 22.672 77.098 22.5013 77.568 22.16C78.048 21.8187 78.421 21.328 78.688 20.688C78.954 20.048 79.088 19.2853 79.088 18.4C79.088 17.5147 78.954 16.752 78.688 16.112C78.421 15.472 78.048 14.9813 77.568 14.64C77.098 14.2987 76.56 14.128 75.952 14.128C75.333 14.128 74.789 14.2987 74.32 14.64C73.85 14.9813 73.482 15.472 73.216 16.112C72.949 16.752 72.816 17.5147 72.816 18.4C72.816 19.2853 72.949 20.048 73.216 20.688C73.482 21.328 73.85 21.8187 74.32 22.16C74.789 22.5013 75.333 22.672 75.952 22.672ZM81.397 24V22.784C82.122 22.208 82.816 21.6267 83.477 21.04C84.138 20.4533 84.725 19.8773 85.237 19.312C85.76 18.736 86.17 18.176 86.469 17.632C86.768 17.0773 86.917 16.544 86.917 16.032C86.917 15.6907 86.858 15.3707 86.741 15.072C86.624 14.7627 86.432 14.5173 86.165 14.336C85.898 14.144 85.541 14.048 85.093 14.048C84.421 14.048 83.914 14.2613 83.573 14.688C83.242 15.1147 83.082 15.6267 83.093 16.224H81.445C81.456 15.4347 81.621 14.7733 81.941 14.24C82.272 13.7067 82.709 13.3013 83.253 13.024C83.808 12.7467 84.432 12.608 85.125 12.608C86.181 12.608 87.024 12.9067 87.653 13.504C88.293 14.0907 88.613 14.912 88.613 15.968C88.613 16.5973 88.458 17.2213 88.149 17.84C87.85 18.4587 87.456 19.056 86.965 19.632C86.485 20.1973 85.968 20.7307 85.413 21.232C84.858 21.7333 84.33 22.1867 83.829 22.592H88.949V24H81.397ZM94.718 24V21.76H89.102V20.416L94.446 12.8H96.398V20.288H97.966V21.76H96.398V24H94.718ZM90.942 20.288H94.814V14.672L90.942 20.288Z" fill="white"/>
<path d="M147.996 23.514L145.35 13.7H146.946L148.892 21.82L151.132 13.7H152.77L154.94 21.82L156.886 13.7H158.482L155.794 23.5H154.058L151.916 15.814L149.704 23.5L147.996 23.514ZM161.471 23.668C160.79 23.668 160.183 23.5187 159.651 23.22C159.128 22.912 158.718 22.4873 158.419 21.946C158.12 21.4047 157.971 20.7747 157.971 20.056C157.971 19.328 158.116 18.6887 158.405 18.138C158.704 17.5873 159.114 17.158 159.637 16.85C160.169 16.542 160.785 16.388 161.485 16.388C162.166 16.388 162.759 16.542 163.263 16.85C163.767 17.1487 164.159 17.55 164.439 18.054C164.719 18.558 164.859 19.1133 164.859 19.72C164.859 19.8133 164.854 19.916 164.845 20.028C164.845 20.1307 164.84 20.2473 164.831 20.378H159.427C159.474 21.05 159.693 21.5633 160.085 21.918C160.486 22.2633 160.948 22.436 161.471 22.436C161.891 22.436 162.241 22.3427 162.521 22.156C162.81 21.96 163.025 21.6987 163.165 21.372H164.649C164.462 22.0253 164.089 22.5713 163.529 23.01C162.978 23.4487 162.292 23.668 161.471 23.668ZM161.471 17.606C160.976 17.606 160.538 17.7553 160.155 18.054C159.772 18.3433 159.539 18.782 159.455 19.37H163.375C163.347 18.8287 163.156 18.3993 162.801 18.082C162.446 17.7647 162.003 17.606 161.471 17.606ZM168.807 23.668C168.125 23.668 167.519 23.5187 166.987 23.22C166.464 22.912 166.053 22.4873 165.755 21.946C165.456 21.4047 165.307 20.7747 165.307 20.056C165.307 19.328 165.451 18.6887 165.741 18.138C166.039 17.5873 166.45 17.158 166.973 16.85C167.505 16.542 168.121 16.388 168.821 16.388C169.502 16.388 170.095 16.542 170.599 16.85C171.103 17.1487 171.495 17.55 171.775 18.054C172.055 18.558 172.195 19.1133 172.195 19.72C172.195 19.8133 172.19 19.916 172.181 20.028C172.181 20.1307 172.176 20.2473 172.167 20.378H166.763C166.809 21.05 167.029 21.5633 167.421 21.918C167.822 22.2633 168.284 22.436 168.807 22.436C169.227 22.436 169.577 22.3427 169.857 22.156C170.146 21.96 170.361 21.6987 170.501 21.372H171.985C171.798 22.0253 171.425 22.5713 170.865 23.01C170.314 23.4487 169.628 23.668 168.807 23.668ZM168.807 17.606C168.312 17.606 167.873 17.7553 167.491 18.054C167.108 18.3433 166.875 18.782 166.791 19.37H170.711C170.683 18.8287 170.491 18.3993 170.137 18.082C169.782 17.7647 169.339 17.606 168.807 17.606ZM172.895 23.5V13.42H174.379V19.426L177.039 16.556H178.817L175.863 19.706L179.251 23.5H177.375L174.379 19.944V23.5H172.895ZM180.624 23.5V15.38L179.042 15.744V14.652L181.212 13.7H182.164V23.5H180.624Z" fill="white"/>
<path d="M208 38H0V157H208V38Z" fill="white"/>
<path d="M28 56.25C26.0716 56.25 24.1866 56.8218 22.5832 57.8932C20.9798 58.9645 19.7301 60.4873 18.9922 62.2688C18.2542 64.0504 18.0611 66.0108 18.4373 67.9021C18.8136 69.7934 19.7422 71.5307 21.1057 72.8943C22.4693 74.2579 24.2066 75.1865 26.0979 75.5627C27.9892 75.9389 29.9496 75.7458 31.7312 75.0078C33.5127 74.2699 35.0355 73.0202 36.1068 71.4168C37.1782 69.8134 37.75 67.9284 37.75 66C37.7473 63.415 36.7192 60.9366 34.8913 59.1087C33.0634 57.2808 30.585 56.2527 28 56.25ZM32.2806 64.2806L27.0306 69.5306C26.961 69.6004 26.8783 69.6557 26.7872 69.6934C26.6962 69.7312 26.5986 69.7506 26.5 69.7506C26.4014 69.7506 26.3038 69.7312 26.2128 69.6934C26.1218 69.6557 26.039 69.6004 25.9694 69.5306L23.7194 67.2806C23.5786 67.1399 23.4996 66.949 23.4996 66.75C23.4996 66.551 23.5786 66.3601 23.7194 66.2194C23.8601 66.0786 24.051 65.9996 24.25 65.9996C24.449 65.9996 24.6399 66.0786 24.7806 66.2194L26.5 67.9397L31.2194 63.2194C31.2891 63.1497 31.3718 63.0944 31.4628 63.0567C31.5539 63.019 31.6515 62.9996 31.75 62.9996C31.8486 62.9996 31.9461 63.019 32.0372 63.0567C32.1282 63.0944 32.2109 63.1497 32.2806 63.2194C32.3503 63.2891 32.4056 63.3718 32.4433 63.4628C32.481 63.5539 32.5004 63.6515 32.5004 63.75C32.5004 63.8485 32.481 63.9461 32.4433 64.0372C32.4056 64.1282 32.3503 64.2109 32.2806 64.2806Z" fill="#7551DC"/>
<path d="M78.6672 56.25C76.7392 56.25 74.8542 56.8218 73.2502 57.8932C71.6472 58.9645 70.3972 60.4873 69.6592 62.2688C68.9212 64.0504 68.7282 66.0108 69.1042 67.9021C69.4812 69.7934 70.4092 71.5307 71.7732 72.8943C73.1362 74.2579 74.8742 75.1865 76.7652 75.5627C78.6562 75.9389 80.6172 75.7458 82.3982 75.0078C84.1802 74.2699 85.7022 73.0202 86.7742 71.4168C87.8452 69.8134 88.4172 67.9284 88.4172 66C88.4142 63.415 87.3862 60.9366 85.5582 59.1087C83.7302 57.2808 81.2522 56.2527 78.6672 56.25ZM82.9482 64.2806L77.6982 69.5306C77.6282 69.6004 77.5452 69.6557 77.4542 69.6934C77.3632 69.7312 77.2662 69.7506 77.1672 69.7506C77.0682 69.7506 76.9712 69.7312 76.8802 69.6934C76.7892 69.6557 76.7062 69.6004 76.6362 69.5306L74.3862 67.2806C74.2462 67.1399 74.1672 66.949 74.1672 66.75C74.1672 66.551 74.2462 66.3601 74.3862 66.2194C74.5272 66.0786 74.7182 65.9996 74.9172 65.9996C75.1162 65.9996 75.3072 66.0786 75.4482 66.2194L77.1672 67.9397L81.8862 63.2194C81.9562 63.1497 82.0392 63.0944 82.1302 63.0567C82.2212 63.019 82.3182 62.9996 82.4172 62.9996C82.5162 62.9996 82.6132 63.019 82.7042 63.0567C82.7952 63.0944 82.8782 63.1497 82.9482 63.2194C83.0172 63.2891 83.0732 63.3718 83.1102 63.4628C83.1482 63.5539 83.1672 63.6515 83.1672 63.75C83.1672 63.8485 83.1482 63.9461 83.1102 64.0372C83.0732 64.1282 83.0172 64.2109 82.9482 64.2806Z" fill="#7551DC"/>
<path d="M129.333 56.25C127.405 56.25 125.52 56.8218 123.916 57.8932C122.313 58.9645 121.063 60.4873 120.325 62.2688C119.587 64.0504 119.394 66.0108 119.77 67.9021C120.147 69.7934 121.075 71.5307 122.439 72.8943C123.802 74.2579 125.54 75.1865 127.431 75.5627C129.322 75.9389 131.283 75.7458 133.064 75.0078C134.846 74.2699 136.368 73.0202 137.44 71.4168C138.511 69.8134 139.083 67.9284 139.083 66C139.08 63.415 138.052 60.9366 136.224 59.1087C134.396 57.2808 131.918 56.2527 129.333 56.25ZM133.614 64.2806L128.364 69.5306C128.294 69.6004 128.211 69.6557 128.12 69.6934C128.029 69.7312 127.932 69.7506 127.833 69.7506C127.734 69.7506 127.637 69.7312 127.546 69.6934C127.455 69.6557 127.372 69.6004 127.302 69.5306L125.052 67.2806C124.912 67.1399 124.833 66.949 124.833 66.75C124.833 66.551 124.912 66.3601 125.052 66.2194C125.193 66.0786 125.384 65.9996 125.583 65.9996C125.782 65.9996 125.973 66.0786 126.114 66.2194L127.833 67.9397L132.552 63.2194C132.622 63.1497 132.705 63.0944 132.796 63.0567C132.887 63.019 132.984 62.9996 133.083 62.9996C133.182 62.9996 133.279 63.019 133.37 63.0567C133.461 63.0944 133.544 63.1497 133.614 63.2194C133.683 63.2891 133.739 63.3718 133.776 63.4628C133.814 63.5539 133.833 63.6515 133.833 63.75C133.833 63.8485 133.814 63.9461 133.776 64.0372C133.739 64.1282 133.683 64.2109 133.614 64.2806Z" fill="#7551DC"/>
<path d="M180 56.25C178.072 56.25 176.187 56.8218 174.583 57.8932C172.98 58.9645 171.73 60.4873 170.992 62.2688C170.254 64.0504 170.061 66.0108 170.437 67.9021C170.814 69.7934 171.742 71.5307 173.106 72.8943C174.469 74.2579 176.207 75.1865 178.098 75.5627C179.989 75.9389 181.95 75.7458 183.731 75.0078C185.513 74.2699 187.035 73.0202 188.107 71.4168C189.178 69.8134 189.75 67.9284 189.75 66C189.747 63.415 188.719 60.9366 186.891 59.1087C185.063 57.2808 182.585 56.2527 180 56.25ZM184.281 64.2806L179.031 69.5306C178.961 69.6004 178.878 69.6557 178.787 69.6934C178.696 69.7312 178.599 69.7506 178.5 69.7506C178.401 69.7506 178.304 69.7312 178.213 69.6934C178.122 69.6557 178.039 69.6004 177.969 69.5306L175.719 67.2806C175.579 67.1399 175.5 66.949 175.5 66.75C175.5 66.551 175.579 66.3601 175.719 66.2194C175.86 66.0786 176.051 65.9996 176.25 65.9996C176.449 65.9996 176.64 66.0786 176.781 66.2194L178.5 67.9397L183.219 63.2194C183.289 63.1497 183.372 63.0944 183.463 63.0567C183.554 63.019 183.651 62.9996 183.75 62.9996C183.849 62.9996 183.946 63.019 184.037 63.0567C184.128 63.0944 184.211 63.1497 184.281 63.2194C184.35 63.2891 184.406 63.3718 184.443 63.4628C184.481 63.5539 184.5 63.6515 184.5 63.75C184.5 63.8485 184.481 63.9461 184.443 64.0372C184.406 64.1282 184.35 64.2109 184.281 64.2806Z" fill="#7551DC"/>
<path d="M35 94H20C17.7909 94 16 95.7909 16 98V113C16 115.209 17.7909 117 20 117H35C37.2091 117 39 115.209 39 113V98C39 95.7909 37.2091 94 35 94Z" fill="#FCEBD1"/>
<path d="M86 94H71C68.7909 94 67 95.7909 67 98V113C67 115.209 68.7909 117 71 117H86C88.2091 117 90 115.209 90 113V98C90 95.7909 88.2091 94 86 94Z" fill="#FCEBD1"/>
<path d="M137 94H122C119.791 94 118 95.7909 118 98V113C118 115.209 119.791 117 122 117H137C139.209 117 141 115.209 141 113V98C141 95.7909 139.209 94 137 94Z" fill="#FCEBD1"/>
<path d="M188 94H173C170.791 94 169 95.7909 169 98V113C169 115.209 170.791 117 173 117H188C190.209 117 192 115.209 192 113V98C192 95.7909 190.209 94 188 94Z" fill="#FCEBD1"/>
<path d="M35 133H20C17.7909 133 16 134.791 16 137V152C16 154.209 17.7909 156 20 156H35C37.2091 156 39 154.209 39 152V137C39 134.791 37.2091 133 35 133Z" fill="#FCEBD1"/>
<path d="M86 133H71C68.7909 133 67 134.791 67 137V152C67 154.209 68.7909 156 71 156H86C88.2091 156 90 154.209 90 152V137C90 134.791 88.2091 133 86 133Z" fill="#FCEBD1"/>
<path d="M137 133H122C119.791 133 118 134.791 118 137V152C118 154.209 119.791 156 122 156H137C139.209 156 141 154.209 141 152V137C141 134.791 139.209 133 137 133Z" fill="#FCEBD1"/>
<path d="M188 133H173C170.791 133 169 134.791 169 137V152C169 154.209 170.791 156 173 156H188C190.209 156 192 154.209 192 152V137C192 134.791 190.209 133 188 133Z" fill="#FCEBD1"/>
</svg>
