<svg width="191" height="91" viewBox="0 0 191 91" fill="none" xmlns="http://www.w3.org/2000/svg">
<rect width="190.466" height="60.3635" rx="30.1817" fill="#FFCC6A"/>
<path d="M33.3496 37.4717C29.4451 37.4717 26.391 34.3017 26.391 30.2232C26.391 26.164 29.4451 23.0133 33.3496 23.0133C37.0029 23.0133 39.8636 25.4488 40.3469 29.0054H37.2348C36.9062 27.0145 35.3599 25.6421 33.3883 25.6421C31.0107 25.6421 29.4064 27.517 29.4064 30.2232C29.4064 32.9486 31.0107 34.8429 33.3883 34.8429C35.3599 34.8429 36.8869 33.4512 37.2348 31.4602H40.3469C39.8636 35.0555 37.0029 37.4717 33.3496 37.4717ZM44.8532 32.1754V37.1818H42.1664V26.8598H44.6406V28.8508C45.3944 27.5364 46.9988 26.7439 48.6611 26.7439V29.5273C46.3802 29.3533 44.8532 29.8946 44.8532 32.1754ZM54.4657 37.3557C51.373 37.3557 49.3047 35.2102 49.3047 31.9821C49.3047 28.9088 51.4503 26.6665 54.427 26.6665C57.6937 26.6665 59.8586 29.3147 59.3754 32.678H52.0495C52.2235 34.3597 53.0353 35.2875 54.4077 35.2875C55.5868 35.2875 56.3793 34.7076 56.6886 33.6831H59.356C58.7761 36.022 56.9785 37.3557 54.4657 37.3557ZM54.369 28.6381C53.1126 28.6381 52.3201 29.45 52.0882 30.977H56.5339C56.4566 29.5466 55.6448 28.6381 54.369 28.6381ZM67.3217 37.1818V35.906C66.6452 36.8725 65.6207 37.3751 64.2097 37.3751C62.0641 37.3751 60.6337 36.1186 60.6337 34.1857C60.6337 32.1754 62.2574 31.093 65.2728 31.093C65.8527 31.093 66.3553 31.1316 66.9931 31.209V30.5904C66.9931 29.4307 66.3359 28.7541 65.2148 28.7541C64.0551 28.7541 63.3592 29.4307 63.2625 30.5904H60.8464C61.001 28.2129 62.7213 26.6665 65.2148 26.6665C67.9209 26.6665 69.506 28.1549 69.506 30.6871V37.1818H67.3217ZM63.1659 34.1084C63.1659 34.9782 63.7844 35.5194 64.7896 35.5194C66.162 35.5194 66.9931 34.7656 66.9931 33.5672V32.8326C66.3553 32.736 65.9107 32.6973 65.4468 32.6973C63.9197 32.6973 63.1659 33.1806 63.1659 34.1084ZM78.0876 34.5723V36.9112C77.4304 37.2398 76.8119 37.3751 76.0194 37.3751C73.8931 37.3751 72.5594 36.1573 72.5594 33.8378V29.16H70.4718V26.8598H72.5594V23.8058H75.2269V26.8598H78.1843V29.16H75.2269V33.2192C75.2269 34.4177 75.7681 34.9009 76.7346 34.9009C77.2371 34.9009 77.701 34.7849 78.0876 34.5723ZM84.0828 37.3557C80.9901 37.3557 78.9218 35.2102 78.9218 31.9821C78.9218 28.9088 81.0674 26.6665 84.0441 26.6665C87.3108 26.6665 89.4757 29.3147 88.9925 32.678H81.6666C81.8406 34.3597 82.6524 35.2875 84.0248 35.2875C85.2039 35.2875 85.9964 34.7076 86.3057 33.6831H88.9731C88.3933 36.022 86.5956 37.3557 84.0828 37.3557ZM83.9861 28.6381C82.7297 28.6381 81.9372 29.45 81.7053 30.977H86.151C86.0737 29.5466 85.2619 28.6381 83.9861 28.6381ZM100.186 32.6587H98.0017V37.1818H95.0636V23.3032H100.186C103.569 23.3032 105.675 24.9076 105.675 27.923C105.675 30.9383 103.569 32.6587 100.186 32.6587ZM100.167 25.7774H98.0017V30.1845H100.167C101.829 30.1845 102.757 29.3147 102.757 27.9423C102.757 26.5699 101.829 25.7774 100.167 25.7774ZM111.814 37.3751C108.818 37.3751 106.576 35.0169 106.576 32.0208C106.576 29.0054 108.818 26.6665 111.814 26.6665C114.81 26.6665 117.052 29.0054 117.052 32.0208C117.052 35.0169 114.81 37.3751 111.814 37.3751ZM111.814 34.9975C113.148 34.9975 114.288 33.9344 114.288 32.0208C114.288 30.1072 113.148 29.0634 111.814 29.0634C110.48 29.0634 109.34 30.1072 109.34 32.0208C109.34 33.9344 110.48 34.9975 111.814 34.9975ZM127.485 33.8764C127.485 36.0413 125.842 37.3751 122.903 37.3751C119.965 37.3751 118.322 35.964 118.11 33.6638H120.681C120.7 34.7269 121.608 35.4035 122.942 35.4035C123.986 35.4035 124.778 35.0749 124.778 34.3403C124.778 33.6831 124.353 33.4125 123.367 33.2192L121.512 32.8713C119.656 32.5427 118.535 31.5182 118.535 29.9139C118.535 28.0003 120.178 26.6665 122.749 26.6665C125.339 26.6665 127.117 28.0389 127.311 30.2618H124.74C124.643 29.2567 123.889 28.6381 122.749 28.6381C121.763 28.6381 121.106 29.0054 121.106 29.6626C121.106 30.2811 121.531 30.5324 122.459 30.7064L124.45 31.0737C126.46 31.4602 127.485 32.3881 127.485 33.8764ZM135.529 34.5723V36.9112C134.871 37.2398 134.253 37.3751 133.46 37.3751C131.334 37.3751 130 36.1573 130 33.8378V29.16H127.913V26.8598H130V23.8058H132.668V26.8598H135.625V29.16H132.668V33.2192C132.668 34.4177 133.209 34.9009 134.176 34.9009C134.678 34.9009 135.142 34.7849 135.529 34.5723Z" fill="#7551DC"/>
<g clip-path="url(#clip0_2022_621)">
<mask id="mask0_2022_621" style="mask-type:luminance" maskUnits="userSpaceOnUse" x="147" y="21" width="18" height="18">
<path d="M164.692 21.5908H147.511V38.7726H164.692V21.5908Z" fill="white"/>
</mask>
<g mask="url(#mask0_2022_621)">
<path d="M155.237 22.1173C155.6 21.4153 156.604 21.4153 156.967 22.1173L159.278 26.5876C159.371 26.7668 159.516 26.9127 159.696 27.0054L164.166 29.3167C164.868 29.6797 164.868 30.6837 164.166 31.0466L159.696 33.358C159.516 33.4506 159.371 33.5966 159.278 33.7758L156.967 38.246C156.604 38.9481 155.6 38.9481 155.237 38.246L152.925 33.7758C152.833 33.5966 152.687 33.4506 152.508 33.358L148.037 31.0466C147.335 30.6837 147.335 29.6797 148.037 29.3167L152.508 27.0054C152.687 26.9127 152.833 26.7668 152.925 26.5876L155.237 22.1173Z" fill="#7551DC"/>
</g>
</g>
<path d="M108.742 55.8919L86.1661 64.575C84.0571 65.3862 84.4701 68.4855 86.718 68.7161L97.1629 69.7873C98.092 69.8826 98.853 70.5675 99.0454 71.4814L101.17 81.5718C101.635 83.7823 104.759 83.8682 105.346 81.6866L111.587 58.4538C112.043 56.7578 110.381 55.2615 108.742 55.8919Z" fill="#1C1C1C"/>
<defs>
<clipPath id="clip0_2022_621">
<rect width="17.1817" height="17.1817" fill="white" transform="translate(147.511 21.5908)"/>
</clipPath>
</defs>
</svg>
