<svg width="152" height="67" viewBox="0 0 152 67" fill="none" xmlns="http://www.w3.org/2000/svg">
<rect width="151.541" height="66.5408" rx="33.2704" fill="white"/>
<circle cx="33.2704" cy="33.2704" r="21.2704" fill="#FFCC6A"/>
<path d="M41.9732 41.6788L35.7779 31.9491L41.8432 25.2774C42.056 25.0375 42.1657 24.7234 42.1485 24.4032C42.1312 24.0829 41.9885 23.7824 41.7512 23.5667C41.5138 23.351 41.201 23.2376 40.8806 23.251C40.5602 23.2643 40.258 23.4035 40.0394 23.6382L34.4261 29.8173L30.5982 23.8038C30.4882 23.6308 30.3363 23.4884 30.1567 23.3897C29.977 23.291 29.7754 23.2392 29.5704 23.2391H24.6954C24.4771 23.2392 24.2628 23.2979 24.0749 23.4092C23.8871 23.5204 23.7325 23.6801 23.6275 23.8715C23.5225 24.0629 23.4708 24.2789 23.4778 24.4972C23.4849 24.7154 23.5504 24.9277 23.6676 25.1119L29.8629 34.8416L23.7935 41.5132C23.6836 41.6313 23.5982 41.7699 23.5423 41.9212C23.4864 42.0725 23.4611 42.2334 23.4679 42.3945C23.4746 42.5557 23.5132 42.7139 23.5816 42.8599C23.6499 43.006 23.7465 43.1371 23.8659 43.2456C23.9852 43.354 24.1249 43.4377 24.2769 43.4918C24.4288 43.5459 24.59 43.5693 24.751 43.5606C24.9121 43.552 25.0698 43.5114 25.215 43.4414C25.3603 43.3713 25.4902 43.2731 25.5972 43.1524L31.2147 36.9734L35.0426 42.9869C35.1526 43.1599 35.3044 43.3023 35.4841 43.401C35.6637 43.4997 35.8654 43.5515 36.0704 43.5516H40.9454C41.1637 43.5515 41.378 43.4927 41.5658 43.3815C41.7537 43.2702 41.9082 43.1106 42.0132 42.9192C42.1183 42.7278 42.17 42.5117 42.1629 42.2935C42.1559 42.0753 42.0904 41.863 41.9732 41.6788ZM36.7397 41.1141L26.9155 25.6766H28.9011L38.7252 41.1141H36.7397Z" fill="#7551DC"/>
<path d="M69.501 29.5344C68.3597 29.5344 67.357 29.3104 66.493 28.8624C65.629 28.4144 64.957 27.7744 64.477 26.9424C63.997 26.1211 63.757 25.1504 63.757 24.0304C63.757 22.8891 63.949 21.8277 64.333 20.8464C64.7277 19.8651 65.277 19.0117 65.981 18.2864C66.6957 17.5504 67.5383 16.9797 68.509 16.5744C69.4903 16.1584 70.573 15.9504 71.757 15.9504C72.9517 15.9504 73.9863 16.1797 74.861 16.6384C75.7463 17.0971 76.429 17.7371 76.909 18.5584C77.3997 19.3691 77.645 20.3131 77.645 21.3904C77.645 22.0197 77.5704 22.6277 77.421 23.2144C77.2717 23.8011 77.0423 24.3344 76.733 24.8144C76.4343 25.2837 76.0717 25.6624 75.645 25.9504C75.2183 26.2277 74.7223 26.3664 74.157 26.3664C73.485 26.3664 72.9943 26.1637 72.685 25.7584C72.3863 25.3531 72.2797 24.8251 72.365 24.1744L72.413 23.6464L72.701 24.2384C72.4343 24.8997 72.013 25.4224 71.437 25.8064C70.8717 26.1797 70.2477 26.3664 69.565 26.3664C68.7757 26.3664 68.1517 26.1264 67.693 25.6464C67.245 25.1557 67.021 24.4891 67.021 23.6464C67.021 23.0597 67.1117 22.4997 67.293 21.9664C67.485 21.4331 67.7463 20.9584 68.077 20.5424C68.4077 20.1157 68.8023 19.7797 69.261 19.5344C69.7303 19.2891 70.2477 19.1664 70.813 19.1664C71.453 19.1664 71.9597 19.3371 72.333 19.6784C72.7063 20.0091 72.9303 20.4944 73.005 21.1344L72.669 21.3424L73.037 19.3264H74.365L73.581 23.8064C73.5063 24.2437 73.5277 24.6011 73.645 24.8784C73.7623 25.1451 74.0077 25.2784 74.381 25.2784C74.7117 25.2784 74.9997 25.1611 75.245 24.9264C75.4903 24.6917 75.6983 24.3877 75.869 24.0144C76.0397 23.6304 76.1677 23.2144 76.253 22.7664C76.3383 22.3184 76.381 21.8811 76.381 21.4544C76.381 20.5371 76.1837 19.7531 75.789 19.1024C75.405 18.4517 74.8557 17.9504 74.141 17.5984C73.4263 17.2357 72.573 17.0544 71.581 17.0544C70.621 17.0544 69.741 17.2304 68.941 17.5824C68.141 17.9344 67.4477 18.4251 66.861 19.0544C66.2743 19.6731 65.821 20.3984 65.501 21.2304C65.181 22.0624 65.021 22.9531 65.021 23.9024C65.021 24.8624 65.2077 25.6784 65.581 26.3504C65.965 27.0224 66.509 27.5291 67.213 27.8704C67.9277 28.2224 68.7703 28.3984 69.741 28.3984C70.2103 28.3984 70.6743 28.3504 71.133 28.2544C71.6023 28.1691 72.0343 28.0357 72.429 27.8544L72.701 28.9264C72.2103 29.1291 71.693 29.2784 71.149 29.3744C70.6157 29.4811 70.0663 29.5344 69.501 29.5344ZM70.061 25.1664C70.477 25.1664 70.861 25.0544 71.213 24.8304C71.565 24.5957 71.8583 24.2757 72.093 23.8704C72.3277 23.4544 72.4663 22.9797 72.509 22.4464C72.5517 22.0624 72.5143 21.7157 72.397 21.4064C72.2903 21.0864 72.109 20.8357 71.853 20.6544C71.6077 20.4624 71.2877 20.3664 70.893 20.3664C70.5197 20.3664 70.1783 20.4517 69.869 20.6224C69.5703 20.7931 69.3143 21.0224 69.101 21.3104C68.8983 21.5984 68.7383 21.9237 68.621 22.2864C68.5143 22.6491 68.461 23.0171 68.461 23.3904C68.461 23.9237 68.5943 24.3557 68.861 24.6864C69.1277 25.0064 69.5277 25.1664 70.061 25.1664ZM80.4869 26.2704V22.1104L76.7909 15.0704H78.5989L81.5109 20.9904H81.0789L83.9589 15.0704H85.7509L82.0869 22.1104V26.2704H80.4869ZM88.4515 26.4624C87.6942 26.4624 87.0115 26.2917 86.4035 25.9504C85.8062 25.5984 85.3315 25.1077 84.9795 24.4784C84.6382 23.8384 84.4675 23.0971 84.4675 22.2544C84.4675 21.4117 84.6435 20.6757 84.9955 20.0464C85.3475 19.4064 85.8275 18.9157 86.4355 18.5744C87.0435 18.2224 87.7208 18.0464 88.4675 18.0464C89.2355 18.0464 89.9182 18.2224 90.5155 18.5744C91.1235 18.9157 91.5982 19.4011 91.9395 20.0304C92.2915 20.6597 92.4675 21.4011 92.4675 22.2544C92.4675 23.0971 92.2915 23.8384 91.9395 24.4784C91.5875 25.1077 91.1075 25.5984 90.4995 25.9504C89.9022 26.2917 89.2195 26.4624 88.4515 26.4624ZM88.4515 25.0864C88.8888 25.0864 89.2835 24.9851 89.6355 24.7824C89.9982 24.5691 90.2862 24.2491 90.4995 23.8224C90.7235 23.3957 90.8355 22.8731 90.8355 22.2544C90.8355 21.6251 90.7288 21.1024 90.5155 20.6864C90.3022 20.2597 90.0142 19.9451 89.6515 19.7424C89.2995 19.5291 88.9102 19.4224 88.4835 19.4224C88.0675 19.4224 87.6728 19.5291 87.2995 19.7424C86.9368 19.9451 86.6435 20.2597 86.4195 20.6864C86.2062 21.1024 86.0995 21.6251 86.0995 22.2544C86.0995 22.8731 86.2062 23.3957 86.4195 23.8224C86.6435 24.2491 86.9315 24.5691 87.2835 24.7824C87.6462 24.9851 88.0355 25.0864 88.4515 25.0864ZM96.318 26.4624C95.6887 26.4624 95.1447 26.3344 94.686 26.0784C94.2273 25.8224 93.87 25.4384 93.614 24.9264C93.3687 24.4037 93.246 23.7531 93.246 22.9744V18.2384H94.846V22.8144C94.846 23.5717 95.006 24.1424 95.326 24.5264C95.6567 24.9104 96.1314 25.1024 96.75 25.1024C97.1767 25.1024 97.5553 25.0011 97.886 24.7984C98.2274 24.5957 98.494 24.3024 98.686 23.9184C98.878 23.5344 98.974 23.0651 98.974 22.5104V18.2384H100.574V26.2704H99.15L99.038 24.8944C98.7927 25.3744 98.43 25.7584 97.95 26.0464C97.4807 26.3237 96.9367 26.4624 96.318 26.4624ZM101.789 26.2704V18.2384H103.229L103.373 19.7584C103.554 19.3957 103.784 19.0917 104.061 18.8464C104.349 18.5904 104.685 18.3931 105.069 18.2544C105.464 18.1157 105.906 18.0464 106.397 18.0464V19.7264H105.869C105.528 19.7264 105.208 19.7691 104.909 19.8544C104.61 19.9397 104.344 20.0784 104.109 20.2704C103.885 20.4624 103.709 20.7237 103.581 21.0544C103.453 21.3851 103.389 21.7957 103.389 22.2864V26.2704H101.789ZM111.931 26.4624C110.832 26.4624 109.883 26.2224 109.083 25.7424C108.283 25.2517 107.664 24.5744 107.227 23.7104C106.8 22.8357 106.587 21.8224 106.587 20.6704C106.587 19.5291 106.8 18.5211 107.227 17.6464C107.664 16.7717 108.283 16.0944 109.083 15.6144C109.883 15.1237 110.832 14.8784 111.931 14.8784C113.232 14.8784 114.293 15.1931 115.115 15.8224C115.936 16.4517 116.453 17.3371 116.667 18.4784H114.923C114.752 17.8171 114.416 17.2891 113.915 16.8944C113.424 16.4997 112.757 16.3024 111.915 16.3024C111.168 16.3024 110.512 16.4784 109.947 16.8304C109.392 17.1824 108.965 17.6837 108.667 18.3344C108.368 18.9851 108.219 19.7637 108.219 20.6704C108.219 21.5771 108.368 22.3611 108.667 23.0224C108.965 23.6731 109.392 24.1744 109.947 24.5264C110.512 24.8677 111.168 25.0384 111.915 25.0384C112.757 25.0384 113.424 24.8517 113.915 24.4784C114.416 24.0944 114.747 23.5771 114.907 22.9264H116.667C116.453 24.0357 115.936 24.9051 115.115 25.5344C114.293 26.1531 113.232 26.4624 111.931 26.4624ZM121.221 26.4624C120.464 26.4624 119.781 26.2917 119.173 25.9504C118.576 25.5984 118.101 25.1077 117.749 24.4784C117.408 23.8384 117.237 23.0971 117.237 22.2544C117.237 21.4117 117.413 20.6757 117.765 20.0464C118.117 19.4064 118.597 18.9157 119.205 18.5744C119.813 18.2224 120.49 18.0464 121.237 18.0464C122.005 18.0464 122.688 18.2224 123.285 18.5744C123.893 18.9157 124.368 19.4011 124.709 20.0304C125.061 20.6597 125.237 21.4011 125.237 22.2544C125.237 23.0971 125.061 23.8384 124.709 24.4784C124.357 25.1077 123.877 25.5984 123.269 25.9504C122.672 26.2917 121.989 26.4624 121.221 26.4624ZM121.221 25.0864C121.658 25.0864 122.053 24.9851 122.405 24.7824C122.768 24.5691 123.056 24.2491 123.269 23.8224C123.493 23.3957 123.605 22.8731 123.605 22.2544C123.605 21.6251 123.498 21.1024 123.285 20.6864C123.072 20.2597 122.784 19.9451 122.421 19.7424C122.069 19.5291 121.68 19.4224 121.253 19.4224C120.837 19.4224 120.442 19.5291 120.069 19.7424C119.706 19.9451 119.413 20.2597 119.189 20.6864C118.976 21.1024 118.869 21.6251 118.869 22.2544C118.869 22.8731 118.976 23.3957 119.189 23.8224C119.413 24.2491 119.701 24.5691 120.053 24.7824C120.416 24.9851 120.805 25.0864 121.221 25.0864Z" fill="#121212"/>
<path d="M66.201 48.4144C65.649 48.4144 65.153 48.3144 64.713 48.1144C64.273 47.9064 63.925 47.6224 63.669 47.2624C63.421 46.8944 63.297 46.4704 63.297 45.9904C63.297 45.4784 63.445 45.0184 63.741 44.6104C64.045 44.2024 64.445 43.9304 64.941 43.7944C64.485 43.6424 64.133 43.3984 63.885 43.0624C63.637 42.7264 63.513 42.3584 63.513 41.9584C63.513 41.5504 63.621 41.1784 63.837 40.8424C64.053 40.4984 64.361 40.2264 64.761 40.0264C65.161 39.8264 65.641 39.7264 66.201 39.7264C66.761 39.7264 67.241 39.8264 67.641 40.0264C68.041 40.2264 68.349 40.4984 68.565 40.8424C68.781 41.1784 68.889 41.5504 68.889 41.9584C68.889 42.3504 68.765 42.7184 68.517 43.0624C68.269 43.3984 67.917 43.6424 67.461 43.7944C67.957 43.9304 68.353 44.2024 68.649 44.6104C68.953 45.0184 69.105 45.4784 69.105 45.9904C69.105 46.4704 68.977 46.8944 68.721 47.2624C68.473 47.6224 68.129 47.9064 67.689 48.1144C67.249 48.3144 66.753 48.4144 66.201 48.4144ZM66.201 43.4344C66.713 43.4344 67.117 43.3064 67.413 43.0504C67.717 42.7864 67.869 42.4424 67.869 42.0184C67.869 41.5464 67.721 41.1904 67.425 40.9504C67.129 40.7104 66.721 40.5904 66.201 40.5904C65.681 40.5904 65.273 40.7104 64.977 40.9504C64.689 41.1904 64.545 41.5464 64.545 42.0184C64.545 42.4424 64.693 42.7864 64.989 43.0504C65.285 43.3064 65.689 43.4344 66.201 43.4344ZM66.201 47.5264C66.833 47.5264 67.305 47.3824 67.617 47.0944C67.937 46.7984 68.097 46.4104 68.097 45.9304C68.097 45.3864 67.925 44.9744 67.581 44.6944C67.237 44.4144 66.777 44.2744 66.201 44.2744C65.625 44.2744 65.165 44.4144 64.821 44.6944C64.477 44.9744 64.305 45.3864 64.305 45.9304C64.305 46.4104 64.461 46.7984 64.773 47.0944C65.093 47.3824 65.569 47.5264 66.201 47.5264ZM70.3932 48.2704V39.8704H71.4012V43.6744L74.9052 39.8704H76.1772L73.0572 43.2184L76.2252 48.2704H75.0012L72.3372 43.9984L71.4012 44.9944V48.2704H70.3932ZM79.8334 48.2704V39.8704H84.9454V40.6984H80.8414V43.6504H84.3334V44.4664H80.8414V48.2704H79.8334ZM88.2777 48.4144C87.7177 48.4144 87.2137 48.2864 86.7657 48.0304C86.3177 47.7744 85.9617 47.4144 85.6977 46.9504C85.4417 46.4784 85.3137 45.9264 85.3137 45.2944C85.3137 44.6624 85.4457 44.1144 85.7097 43.6504C85.9737 43.1784 86.3297 42.8144 86.7777 42.5584C87.2337 42.3024 87.7417 42.1744 88.3017 42.1744C88.8617 42.1744 89.3657 42.3024 89.8137 42.5584C90.2617 42.8144 90.6137 43.1784 90.8697 43.6504C91.1337 44.1144 91.2657 44.6624 91.2657 45.2944C91.2657 45.9264 91.1337 46.4784 90.8697 46.9504C90.6057 47.4144 90.2457 47.7744 89.7897 48.0304C89.3417 48.2864 88.8377 48.4144 88.2777 48.4144ZM88.2777 47.5504C88.6217 47.5504 88.9417 47.4664 89.2377 47.2984C89.5337 47.1304 89.7737 46.8784 89.9577 46.5424C90.1417 46.2064 90.2337 45.7904 90.2337 45.2944C90.2337 44.7984 90.1417 44.3824 89.9577 44.0464C89.7817 43.7104 89.5457 43.4584 89.2497 43.2904C88.9537 43.1224 88.6377 43.0384 88.3017 43.0384C87.9577 43.0384 87.6377 43.1224 87.3417 43.2904C87.0457 43.4584 86.8057 43.7104 86.6217 44.0464C86.4377 44.3824 86.3457 44.7984 86.3457 45.2944C86.3457 45.7904 86.4377 46.2064 86.6217 46.5424C86.8057 46.8784 87.0417 47.1304 87.3297 47.2984C87.6257 47.4664 87.9417 47.5504 88.2777 47.5504ZM92.3073 48.2704V39.6304H93.3153V48.2704H92.3073ZM94.6075 48.2704V39.6304H95.6155V48.2704H94.6075ZM99.6196 48.4144C99.0596 48.4144 98.5556 48.2864 98.1076 48.0304C97.6596 47.7744 97.3036 47.4144 97.0396 46.9504C96.7836 46.4784 96.6556 45.9264 96.6556 45.2944C96.6556 44.6624 96.7876 44.1144 97.0516 43.6504C97.3156 43.1784 97.6716 42.8144 98.1196 42.5584C98.5756 42.3024 99.0836 42.1744 99.6436 42.1744C100.204 42.1744 100.708 42.3024 101.156 42.5584C101.604 42.8144 101.956 43.1784 102.212 43.6504C102.476 44.1144 102.608 44.6624 102.608 45.2944C102.608 45.9264 102.476 46.4784 102.212 46.9504C101.948 47.4144 101.588 47.7744 101.132 48.0304C100.684 48.2864 100.18 48.4144 99.6196 48.4144ZM99.6196 47.5504C99.9636 47.5504 100.284 47.4664 100.58 47.2984C100.876 47.1304 101.116 46.8784 101.3 46.5424C101.484 46.2064 101.576 45.7904 101.576 45.2944C101.576 44.7984 101.484 44.3824 101.3 44.0464C101.124 43.7104 100.888 43.4584 100.592 43.2904C100.296 43.1224 99.9796 43.0384 99.6436 43.0384C99.2996 43.0384 98.9796 43.1224 98.6836 43.2904C98.3876 43.4584 98.1476 43.7104 97.9636 44.0464C97.7796 44.3824 97.6876 44.7984 97.6876 45.2944C97.6876 45.7904 97.7796 46.2064 97.9636 46.5424C98.1476 46.8784 98.3836 47.1304 98.6716 47.2984C98.9676 47.4664 99.2836 47.5504 99.6196 47.5504ZM104.627 48.2704L102.887 42.3184H103.895L105.155 46.9864L106.547 42.3184H107.687L109.091 46.9864L110.339 42.3184H111.359L109.619 48.2704H108.587L107.123 43.3624L105.659 48.2704H104.627ZM114.567 48.4144C113.999 48.4144 113.495 48.2864 113.055 48.0304C112.615 47.7664 112.267 47.4024 112.011 46.9384C111.763 46.4744 111.639 45.9264 111.639 45.2944C111.639 44.6704 111.763 44.1264 112.011 43.6624C112.259 43.1904 112.603 42.8264 113.043 42.5704C113.491 42.3064 114.007 42.1744 114.591 42.1744C115.167 42.1744 115.663 42.3064 116.079 42.5704C116.503 42.8264 116.827 43.1664 117.051 43.5904C117.275 44.0144 117.387 44.4704 117.387 44.9584C117.387 45.0464 117.383 45.1344 117.375 45.2224C117.375 45.3104 117.375 45.4104 117.375 45.5224H112.635C112.659 45.9784 112.763 46.3584 112.947 46.6624C113.139 46.9584 113.375 47.1824 113.655 47.3344C113.943 47.4864 114.247 47.5624 114.567 47.5624C114.983 47.5624 115.331 47.4664 115.611 47.2744C115.891 47.0824 116.095 46.8224 116.223 46.4944H117.219C117.059 47.0464 116.751 47.5064 116.295 47.8744C115.847 48.2344 115.271 48.4144 114.567 48.4144ZM114.567 43.0264C114.087 43.0264 113.659 43.1744 113.283 43.4704C112.915 43.7584 112.703 44.1824 112.647 44.7424H116.391C116.367 44.2064 116.183 43.7864 115.839 43.4824C115.495 43.1784 115.071 43.0264 114.567 43.0264ZM118.363 48.2704V42.3184H119.275L119.359 43.4584C119.543 43.0664 119.823 42.7544 120.199 42.5224C120.575 42.2904 121.039 42.1744 121.591 42.1744V43.2304H121.315C120.963 43.2304 120.639 43.2944 120.343 43.4224C120.047 43.5424 119.811 43.7504 119.635 44.0464C119.459 44.3424 119.371 44.7504 119.371 45.2704V48.2704H118.363ZM124.642 48.4144C123.93 48.4144 123.338 48.2344 122.866 47.8744C122.394 47.5144 122.118 47.0264 122.038 46.4104H123.07C123.134 46.7224 123.298 46.9944 123.562 47.2264C123.834 47.4504 124.198 47.5624 124.654 47.5624C125.078 47.5624 125.39 47.4744 125.59 47.2984C125.79 47.1144 125.89 46.8984 125.89 46.6504C125.89 46.2904 125.758 46.0504 125.494 45.9304C125.238 45.8104 124.874 45.7024 124.402 45.6064C124.082 45.5424 123.762 45.4504 123.442 45.3304C123.122 45.2104 122.854 45.0424 122.638 44.8264C122.422 44.6024 122.314 44.3104 122.314 43.9504C122.314 43.4304 122.506 43.0064 122.89 42.6784C123.282 42.3424 123.81 42.1744 124.474 42.1744C125.106 42.1744 125.622 42.3344 126.022 42.6544C126.43 42.9664 126.666 43.4144 126.73 43.9984H125.734C125.694 43.6944 125.562 43.4584 125.338 43.2904C125.122 43.1144 124.83 43.0264 124.462 43.0264C124.102 43.0264 123.822 43.1024 123.622 43.2544C123.43 43.4064 123.334 43.6064 123.334 43.8544C123.334 44.0944 123.458 44.2824 123.706 44.4184C123.962 44.5544 124.306 44.6704 124.738 44.7664C125.106 44.8464 125.454 44.9464 125.782 45.0664C126.118 45.1784 126.39 45.3504 126.598 45.5824C126.814 45.8064 126.922 46.1344 126.922 46.5664C126.93 47.1024 126.726 47.5464 126.31 47.8984C125.902 48.2424 125.346 48.4144 124.642 48.4144Z" fill="#9E9E9E"/>
</svg>
