<svg width="155" height="67" viewBox="0 0 155 67" fill="none" xmlns="http://www.w3.org/2000/svg">
<rect width="154.541" height="66.5408" rx="33.2704" fill="white"/>
<circle cx="33.2704" cy="33.2704" r="21.2704" fill="#FFCC6A"/>
<path d="M33.3955 28.5203C32.4313 28.5203 31.4888 28.8062 30.6871 29.3419C29.8854 29.8776 29.2606 30.639 28.8916 31.5297C28.5226 32.4205 28.4261 33.4007 28.6142 34.3464C28.8023 35.292 29.2666 36.1607 29.9484 36.8425C30.6301 37.5243 31.4988 37.9886 32.4444 38.1767C33.3901 38.3648 34.3703 38.2682 35.2611 37.8992C36.1519 37.5303 36.9132 36.9054 37.4489 36.1037C37.9846 35.302 38.2705 34.3595 38.2705 33.3953C38.2692 32.1028 37.7551 30.8636 36.8412 29.9497C35.9272 29.0357 34.688 28.5217 33.3955 28.5203ZM33.3955 35.8328C32.9134 35.8328 32.4422 35.6899 32.0413 35.422C31.6405 35.1542 31.328 34.7735 31.1436 34.3281C30.9591 33.8827 30.9108 33.3926 31.0048 32.9198C31.0989 32.447 31.331 32.0126 31.6719 31.6718C32.0128 31.3309 32.4471 31.0987 32.92 31.0047C33.3928 30.9106 33.8829 30.9589 34.3283 31.1434C34.7737 31.3279 35.1544 31.6403 35.4222 32.0411C35.6901 32.442 35.833 32.9132 35.833 33.3953C35.833 34.0418 35.5762 34.6618 35.1191 35.1189C34.662 35.576 34.042 35.8328 33.3955 35.8328ZM38.2705 22.4266H28.5205C26.9049 22.4285 25.356 23.0711 24.2137 24.2135C23.0713 25.3559 22.4286 26.9047 22.4268 28.5203V38.2703C22.4286 39.8859 23.0713 41.4348 24.2137 42.5772C25.356 43.7196 26.9049 44.3622 28.5205 44.3641H38.2705C39.8861 44.3622 41.435 43.7196 42.5774 42.5772C43.7198 41.4348 44.3624 39.8859 44.3643 38.2703V28.5203C44.3624 26.9047 43.7198 25.3559 42.5774 24.2135C41.435 23.0711 39.8861 22.4285 38.2705 22.4266ZM41.9268 38.2703C41.9268 39.24 41.5415 40.17 40.8559 40.8557C40.1702 41.5414 39.2402 41.9266 38.2705 41.9266H28.5205C27.5508 41.9266 26.6208 41.5414 25.9351 40.8557C25.2495 40.17 24.8643 39.24 24.8643 38.2703V28.5203C24.8643 27.5506 25.2495 26.6206 25.9351 25.935C26.6208 25.2493 27.5508 24.8641 28.5205 24.8641H38.2705C39.2402 24.8641 40.1702 25.2493 40.8559 25.935C41.5415 26.6206 41.9268 27.5506 41.9268 28.5203V38.2703ZM40.3018 28.1141C40.3018 28.4355 40.2065 28.7496 40.0279 29.0169C39.8493 29.2841 39.5955 29.4924 39.2986 29.6154C39.0017 29.7384 38.675 29.7706 38.3597 29.7079C38.0445 29.6452 37.755 29.4904 37.5277 29.2631C37.3004 29.0359 37.1457 28.7463 37.083 28.4311C37.0203 28.1159 37.0525 27.7891 37.1755 27.4922C37.2984 27.1953 37.5067 26.9415 37.774 26.7629C38.0412 26.5844 38.3554 26.4891 38.6768 26.4891C39.1077 26.4891 39.5211 26.6603 39.8258 26.965C40.1306 27.2698 40.3018 27.6831 40.3018 28.1141Z" fill="#7551DC"/>
<path d="M69.501 31.5344C68.3597 31.5344 67.357 31.3104 66.493 30.8624C65.629 30.4144 64.957 29.7744 64.477 28.9424C63.997 28.1211 63.757 27.1504 63.757 26.0304C63.757 24.8891 63.949 23.8277 64.333 22.8464C64.7277 21.8651 65.277 21.0117 65.981 20.2864C66.6957 19.5504 67.5383 18.9797 68.509 18.5744C69.4903 18.1584 70.573 17.9504 71.757 17.9504C72.9517 17.9504 73.9863 18.1797 74.861 18.6384C75.7463 19.0971 76.429 19.7371 76.909 20.5584C77.3997 21.3691 77.645 22.3131 77.645 23.3904C77.645 24.0197 77.5704 24.6277 77.421 25.2144C77.2717 25.8011 77.0423 26.3344 76.733 26.8144C76.4343 27.2837 76.0717 27.6624 75.645 27.9504C75.2183 28.2277 74.7223 28.3664 74.157 28.3664C73.485 28.3664 72.9943 28.1637 72.685 27.7584C72.3863 27.3531 72.2797 26.8251 72.365 26.1744L72.413 25.6464L72.701 26.2384C72.4343 26.8997 72.013 27.4224 71.437 27.8064C70.8717 28.1797 70.2477 28.3664 69.565 28.3664C68.7757 28.3664 68.1517 28.1264 67.693 27.6464C67.245 27.1557 67.021 26.4891 67.021 25.6464C67.021 25.0597 67.1117 24.4997 67.293 23.9664C67.485 23.4331 67.7463 22.9584 68.077 22.5424C68.4077 22.1157 68.8023 21.7797 69.261 21.5344C69.7303 21.2891 70.2477 21.1664 70.813 21.1664C71.453 21.1664 71.9597 21.3371 72.333 21.6784C72.7063 22.0091 72.9303 22.4944 73.005 23.1344L72.669 23.3424L73.037 21.3264H74.365L73.581 25.8064C73.5063 26.2437 73.5277 26.6011 73.645 26.8784C73.7623 27.1451 74.0077 27.2784 74.381 27.2784C74.7117 27.2784 74.9997 27.1611 75.245 26.9264C75.4903 26.6917 75.6983 26.3877 75.869 26.0144C76.0397 25.6304 76.1677 25.2144 76.253 24.7664C76.3383 24.3184 76.381 23.8811 76.381 23.4544C76.381 22.5371 76.1837 21.7531 75.789 21.1024C75.405 20.4517 74.8557 19.9504 74.141 19.5984C73.4263 19.2357 72.573 19.0544 71.581 19.0544C70.621 19.0544 69.741 19.2304 68.941 19.5824C68.141 19.9344 67.4477 20.4251 66.861 21.0544C66.2743 21.6731 65.821 22.3984 65.501 23.2304C65.181 24.0624 65.021 24.9531 65.021 25.9024C65.021 26.8624 65.2077 27.6784 65.581 28.3504C65.965 29.0224 66.509 29.5291 67.213 29.8704C67.9277 30.2224 68.7703 30.3984 69.741 30.3984C70.2103 30.3984 70.6743 30.3504 71.133 30.2544C71.6023 30.1691 72.0343 30.0357 72.429 29.8544L72.701 30.9264C72.2103 31.1291 71.693 31.2784 71.149 31.3744C70.6157 31.4811 70.0663 31.5344 69.501 31.5344ZM70.061 27.1664C70.477 27.1664 70.861 27.0544 71.213 26.8304C71.565 26.5957 71.8583 26.2757 72.093 25.8704C72.3277 25.4544 72.4663 24.9797 72.509 24.4464C72.5517 24.0624 72.5143 23.7157 72.397 23.4064C72.2903 23.0864 72.109 22.8357 71.853 22.6544C71.6077 22.4624 71.2877 22.3664 70.893 22.3664C70.5197 22.3664 70.1783 22.4517 69.869 22.6224C69.5703 22.7931 69.3143 23.0224 69.101 23.3104C68.8983 23.5984 68.7383 23.9237 68.621 24.2864C68.5143 24.6491 68.461 25.0171 68.461 25.3904C68.461 25.9237 68.5943 26.3557 68.861 26.6864C69.1277 27.0064 69.5277 27.1664 70.061 27.1664ZM80.4869 28.2704V24.1104L76.7909 17.0704H78.5989L81.5109 22.9904H81.0789L83.9589 17.0704H85.7509L82.0869 24.1104V28.2704H80.4869ZM88.4515 28.4624C87.6942 28.4624 87.0115 28.2917 86.4035 27.9504C85.8062 27.5984 85.3315 27.1077 84.9795 26.4784C84.6382 25.8384 84.4675 25.0971 84.4675 24.2544C84.4675 23.4117 84.6435 22.6757 84.9955 22.0464C85.3475 21.4064 85.8275 20.9157 86.4355 20.5744C87.0435 20.2224 87.7208 20.0464 88.4675 20.0464C89.2355 20.0464 89.9182 20.2224 90.5155 20.5744C91.1235 20.9157 91.5982 21.4011 91.9395 22.0304C92.2915 22.6597 92.4675 23.4011 92.4675 24.2544C92.4675 25.0971 92.2915 25.8384 91.9395 26.4784C91.5875 27.1077 91.1075 27.5984 90.4995 27.9504C89.9022 28.2917 89.2195 28.4624 88.4515 28.4624ZM88.4515 27.0864C88.8888 27.0864 89.2835 26.9851 89.6355 26.7824C89.9982 26.5691 90.2862 26.2491 90.4995 25.8224C90.7235 25.3957 90.8355 24.8731 90.8355 24.2544C90.8355 23.6251 90.7288 23.1024 90.5155 22.6864C90.3022 22.2597 90.0142 21.9451 89.6515 21.7424C89.2995 21.5291 88.9102 21.4224 88.4835 21.4224C88.0675 21.4224 87.6728 21.5291 87.2995 21.7424C86.9368 21.9451 86.6435 22.2597 86.4195 22.6864C86.2062 23.1024 86.0995 23.6251 86.0995 24.2544C86.0995 24.8731 86.2062 25.3957 86.4195 25.8224C86.6435 26.2491 86.9315 26.5691 87.2835 26.7824C87.6462 26.9851 88.0355 27.0864 88.4515 27.0864ZM96.318 28.4624C95.6887 28.4624 95.1447 28.3344 94.686 28.0784C94.2273 27.8224 93.87 27.4384 93.614 26.9264C93.3687 26.4037 93.246 25.7531 93.246 24.9744V20.2384H94.846V24.8144C94.846 25.5717 95.006 26.1424 95.326 26.5264C95.6567 26.9104 96.1314 27.1024 96.75 27.1024C97.1767 27.1024 97.5553 27.0011 97.886 26.7984C98.2274 26.5957 98.494 26.3024 98.686 25.9184C98.878 25.5344 98.974 25.0651 98.974 24.5104V20.2384H100.574V28.2704H99.15L99.038 26.8944C98.7927 27.3744 98.43 27.7584 97.95 28.0464C97.4807 28.3237 96.9367 28.4624 96.318 28.4624ZM101.789 28.2704V20.2384H103.229L103.373 21.7584C103.554 21.3957 103.784 21.0917 104.061 20.8464C104.349 20.5904 104.685 20.3931 105.069 20.2544C105.464 20.1157 105.906 20.0464 106.397 20.0464V21.7264H105.869C105.528 21.7264 105.208 21.7691 104.909 21.8544C104.61 21.9397 104.344 22.0784 104.109 22.2704C103.885 22.4624 103.709 22.7237 103.581 23.0544C103.453 23.3851 103.389 23.7957 103.389 24.2864V28.2704H101.789ZM111.931 28.4624C110.832 28.4624 109.883 28.2224 109.083 27.7424C108.283 27.2517 107.664 26.5744 107.227 25.7104C106.8 24.8357 106.587 23.8224 106.587 22.6704C106.587 21.5291 106.8 20.5211 107.227 19.6464C107.664 18.7717 108.283 18.0944 109.083 17.6144C109.883 17.1237 110.832 16.8784 111.931 16.8784C113.232 16.8784 114.293 17.1931 115.115 17.8224C115.936 18.4517 116.453 19.3371 116.667 20.4784H114.923C114.752 19.8171 114.416 19.2891 113.915 18.8944C113.424 18.4997 112.757 18.3024 111.915 18.3024C111.168 18.3024 110.512 18.4784 109.947 18.8304C109.392 19.1824 108.965 19.6837 108.667 20.3344C108.368 20.9851 108.219 21.7637 108.219 22.6704C108.219 23.5771 108.368 24.3611 108.667 25.0224C108.965 25.6731 109.392 26.1744 109.947 26.5264C110.512 26.8677 111.168 27.0384 111.915 27.0384C112.757 27.0384 113.424 26.8517 113.915 26.4784C114.416 26.0944 114.747 25.5771 114.907 24.9264H116.667C116.453 26.0357 115.936 26.9051 115.115 27.5344C114.293 28.1531 113.232 28.4624 111.931 28.4624ZM121.221 28.4624C120.464 28.4624 119.781 28.2917 119.173 27.9504C118.576 27.5984 118.101 27.1077 117.749 26.4784C117.408 25.8384 117.237 25.0971 117.237 24.2544C117.237 23.4117 117.413 22.6757 117.765 22.0464C118.117 21.4064 118.597 20.9157 119.205 20.5744C119.813 20.2224 120.49 20.0464 121.237 20.0464C122.005 20.0464 122.688 20.2224 123.285 20.5744C123.893 20.9157 124.368 21.4011 124.709 22.0304C125.061 22.6597 125.237 23.4011 125.237 24.2544C125.237 25.0971 125.061 25.8384 124.709 26.4784C124.357 27.1077 123.877 27.5984 123.269 27.9504C122.672 28.2917 121.989 28.4624 121.221 28.4624ZM121.221 27.0864C121.658 27.0864 122.053 26.9851 122.405 26.7824C122.768 26.5691 123.056 26.2491 123.269 25.8224C123.493 25.3957 123.605 24.8731 123.605 24.2544C123.605 23.6251 123.498 23.1024 123.285 22.6864C123.072 22.2597 122.784 21.9451 122.421 21.7424C122.069 21.5291 121.68 21.4224 121.253 21.4224C120.837 21.4224 120.442 21.5291 120.069 21.7424C119.706 21.9451 119.413 22.2597 119.189 22.6864C118.976 23.1024 118.869 23.6251 118.869 24.2544C118.869 24.8731 118.976 25.3957 119.189 25.8224C119.413 26.2491 119.701 26.5691 120.053 26.7824C120.416 26.9851 120.805 27.0864 121.221 27.0864Z" fill="#121212"/>
<path d="M64.257 46.2704V38.9984L62.901 39.2984V38.6024L64.593 37.8704H65.277V46.2704H64.257ZM66.5581 46.2704V45.5624C67.1261 45.1144 67.6621 44.6624 68.1661 44.2064C68.6781 43.7424 69.1301 43.2864 69.5221 42.8384C69.9221 42.3904 70.2341 41.9504 70.4581 41.5184C70.6901 41.0864 70.8061 40.6704 70.8061 40.2704C70.8061 39.9744 70.7541 39.6984 70.6501 39.4424C70.5541 39.1864 70.3941 38.9824 70.1701 38.8304C69.9461 38.6704 69.6421 38.5904 69.2581 38.5904C68.8901 38.5904 68.5821 38.6744 68.3341 38.8424C68.0861 39.0024 67.8981 39.2184 67.7701 39.4904C67.6501 39.7624 67.5901 40.0544 67.5901 40.3664H66.6181C66.6181 39.8144 66.7341 39.3424 66.9661 38.9504C67.1981 38.5504 67.5141 38.2464 67.9141 38.0384C68.3141 37.8304 68.7661 37.7264 69.2701 37.7264C70.0141 37.7264 70.6221 37.9384 71.0941 38.3624C71.5741 38.7784 71.8141 39.4024 71.8141 40.2344C71.8141 40.7304 71.6901 41.2224 71.4421 41.7104C71.1941 42.1904 70.8781 42.6584 70.4941 43.1144C70.1101 43.5624 69.6981 43.9824 69.2581 44.3744C68.8261 44.7664 68.4221 45.1184 68.0461 45.4304H72.1021V46.2704H66.5581ZM73.1973 46.2704V37.8704H74.2053V41.6744L77.7093 37.8704H78.9813L75.8613 41.2184L79.0293 46.2704H77.8053L75.1413 41.9984L74.2053 42.9944V46.2704H73.1973ZM82.6375 46.2704V37.8704H87.7495V38.6984H83.6455V41.6504H87.1375V42.4664H83.6455V46.2704H82.6375ZM91.0818 46.4144C90.5218 46.4144 90.0178 46.2864 89.5698 46.0304C89.1218 45.7744 88.7658 45.4144 88.5018 44.9504C88.2458 44.4784 88.1178 43.9264 88.1178 43.2944C88.1178 42.6624 88.2498 42.1144 88.5138 41.6504C88.7778 41.1784 89.1338 40.8144 89.5818 40.5584C90.0378 40.3024 90.5458 40.1744 91.1058 40.1744C91.6658 40.1744 92.1698 40.3024 92.6178 40.5584C93.0658 40.8144 93.4178 41.1784 93.6738 41.6504C93.9378 42.1144 94.0698 42.6624 94.0698 43.2944C94.0698 43.9264 93.9378 44.4784 93.6738 44.9504C93.4098 45.4144 93.0498 45.7744 92.5938 46.0304C92.1458 46.2864 91.6418 46.4144 91.0818 46.4144ZM91.0818 45.5504C91.4258 45.5504 91.7458 45.4664 92.0418 45.2984C92.3378 45.1304 92.5778 44.8784 92.7618 44.5424C92.9458 44.2064 93.0378 43.7904 93.0378 43.2944C93.0378 42.7984 92.9458 42.3824 92.7618 42.0464C92.5858 41.7104 92.3498 41.4584 92.0538 41.2904C91.7578 41.1224 91.4418 41.0384 91.1058 41.0384C90.7618 41.0384 90.4418 41.1224 90.1458 41.2904C89.8498 41.4584 89.6098 41.7104 89.4258 42.0464C89.2418 42.3824 89.1498 42.7984 89.1498 43.2944C89.1498 43.7904 89.2418 44.2064 89.4258 44.5424C89.6098 44.8784 89.8458 45.1304 90.1338 45.2984C90.4298 45.4664 90.7458 45.5504 91.0818 45.5504ZM95.1114 46.2704V37.6304H96.1194V46.2704H95.1114ZM97.4115 46.2704V37.6304H98.4195V46.2704H97.4115ZM102.424 46.4144C101.864 46.4144 101.36 46.2864 100.912 46.0304C100.464 45.7744 100.108 45.4144 99.8437 44.9504C99.5877 44.4784 99.4597 43.9264 99.4597 43.2944C99.4597 42.6624 99.5917 42.1144 99.8557 41.6504C100.12 41.1784 100.476 40.8144 100.924 40.5584C101.38 40.3024 101.888 40.1744 102.448 40.1744C103.008 40.1744 103.512 40.3024 103.96 40.5584C104.408 40.8144 104.76 41.1784 105.016 41.6504C105.28 42.1144 105.412 42.6624 105.412 43.2944C105.412 43.9264 105.28 44.4784 105.016 44.9504C104.752 45.4144 104.392 45.7744 103.936 46.0304C103.488 46.2864 102.984 46.4144 102.424 46.4144ZM102.424 45.5504C102.768 45.5504 103.088 45.4664 103.384 45.2984C103.68 45.1304 103.92 44.8784 104.104 44.5424C104.288 44.2064 104.38 43.7904 104.38 43.2944C104.38 42.7984 104.288 42.3824 104.104 42.0464C103.928 41.7104 103.692 41.4584 103.396 41.2904C103.1 41.1224 102.784 41.0384 102.448 41.0384C102.104 41.0384 101.784 41.1224 101.488 41.2904C101.192 41.4584 100.952 41.7104 100.768 42.0464C100.584 42.3824 100.492 42.7984 100.492 43.2944C100.492 43.7904 100.584 44.2064 100.768 44.5424C100.952 44.8784 101.188 45.1304 101.476 45.2984C101.772 45.4664 102.088 45.5504 102.424 45.5504ZM107.431 46.2704L105.691 40.3184H106.699L107.959 44.9864L109.351 40.3184H110.491L111.895 44.9864L113.143 40.3184H114.163L112.423 46.2704H111.391L109.927 41.3624L108.463 46.2704H107.431ZM117.371 46.4144C116.803 46.4144 116.299 46.2864 115.859 46.0304C115.419 45.7664 115.071 45.4024 114.815 44.9384C114.567 44.4744 114.443 43.9264 114.443 43.2944C114.443 42.6704 114.567 42.1264 114.815 41.6624C115.063 41.1904 115.407 40.8264 115.847 40.5704C116.295 40.3064 116.811 40.1744 117.395 40.1744C117.971 40.1744 118.467 40.3064 118.883 40.5704C119.307 40.8264 119.631 41.1664 119.855 41.5904C120.079 42.0144 120.191 42.4704 120.191 42.9584C120.191 43.0464 120.187 43.1344 120.179 43.2224C120.179 43.3104 120.179 43.4104 120.179 43.5224H115.439C115.463 43.9784 115.567 44.3584 115.751 44.6624C115.943 44.9584 116.179 45.1824 116.459 45.3344C116.747 45.4864 117.051 45.5624 117.371 45.5624C117.787 45.5624 118.135 45.4664 118.415 45.2744C118.695 45.0824 118.899 44.8224 119.027 44.4944H120.023C119.863 45.0464 119.555 45.5064 119.099 45.8744C118.651 46.2344 118.075 46.4144 117.371 46.4144ZM117.371 41.0264C116.891 41.0264 116.463 41.1744 116.087 41.4704C115.719 41.7584 115.507 42.1824 115.451 42.7424H119.195C119.171 42.2064 118.987 41.7864 118.643 41.4824C118.299 41.1784 117.875 41.0264 117.371 41.0264ZM121.167 46.2704V40.3184H122.079L122.163 41.4584C122.347 41.0664 122.627 40.7544 123.003 40.5224C123.379 40.2904 123.843 40.1744 124.395 40.1744V41.2304H124.119C123.767 41.2304 123.443 41.2944 123.147 41.4224C122.851 41.5424 122.615 41.7504 122.439 42.0464C122.263 42.3424 122.175 42.7504 122.175 43.2704V46.2704H121.167ZM127.446 46.4144C126.734 46.4144 126.142 46.2344 125.67 45.8744C125.198 45.5144 124.922 45.0264 124.842 44.4104H125.874C125.938 44.7224 126.102 44.9944 126.366 45.2264C126.638 45.4504 127.002 45.5624 127.458 45.5624C127.882 45.5624 128.194 45.4744 128.394 45.2984C128.594 45.1144 128.694 44.8984 128.694 44.6504C128.694 44.2904 128.562 44.0504 128.298 43.9304C128.042 43.8104 127.678 43.7024 127.206 43.6064C126.886 43.5424 126.566 43.4504 126.246 43.3304C125.926 43.2104 125.658 43.0424 125.442 42.8264C125.226 42.6024 125.118 42.3104 125.118 41.9504C125.118 41.4304 125.31 41.0064 125.694 40.6784C126.086 40.3424 126.614 40.1744 127.278 40.1744C127.91 40.1744 128.426 40.3344 128.826 40.6544C129.234 40.9664 129.47 41.4144 129.534 41.9984H128.538C128.498 41.6944 128.366 41.4584 128.142 41.2904C127.926 41.1144 127.634 41.0264 127.266 41.0264C126.906 41.0264 126.626 41.1024 126.426 41.2544C126.234 41.4064 126.138 41.6064 126.138 41.8544C126.138 42.0944 126.262 42.2824 126.51 42.4184C126.766 42.5544 127.11 42.6704 127.542 42.7664C127.91 42.8464 128.258 42.9464 128.586 43.0664C128.922 43.1784 129.194 43.3504 129.402 43.5824C129.618 43.8064 129.726 44.1344 129.726 44.5664C129.734 45.1024 129.53 45.5464 129.114 45.8984C128.706 46.2424 128.15 46.4144 127.446 46.4144Z" fill="#9E9E9E"/>
</svg>
